<?xml version="1.0" encoding="UTF-8"?>
<!--?xml version="1.0" encoding="utf-8"?-->
<!-- Generator: Adobe Illustrator 18.0.0, SVG Export Plug-In . SVG Version: 6.00 Build 0)  -->
<svg id="_x32_" style="height:256px;width:256px" version="1.1" viewBox="0 0 512 512" xml:space="preserve" xmlns="http://www.w3.org/2000/svg">
<g fill="#3A555F">
	<polygon class="st0" points="512 295 446 227 512 170"/>
	<polygon class="st0" points="66 227 0 295 0 170"/>
	<path class="st0" d="m512 358v63c0 15-12 28-28 28h-457c-15 0-28-12-28-28v-63l99-103 113 97c12 10 27 16 44 16s32-5.6 44-16l113-97 99 103z"/>
	<path class="st0" d="m512 91v28l-241 208c-7.8 6.7-21 6.7-29 0l-241-208v-28c0-15 12-28 28-28h457c15 0 28 12 28 28z"/>
</g>
</svg>
