<?xml version="1.0" encoding="UTF-8"?>
<!-- Created with Inkscape (http://www.inkscape.org/) -->
<svg width="390" height="340" version="1.1" viewBox="0 0 390 340" xmlns="http://www.w3.org/2000/svg" xmlns:xlink="http://www.w3.org/1999/xlink">
 <defs>
  <clipPath id="clipPath2">
   <path transform="translate(-204,-157)" d="m0 255h550v-255h-550z"/>
  </clipPath>
  <clipPath id="clipPath4">
   <path transform="translate(-134,-110)" d="m0 255h550v-255h-550z"/>
  </clipPath>
 </defs>
 <path transform="matrix(3.1 0 0 -3.1 378 78)" d="m0 0c-1.4 5.2-5.5 9.3-11 11-9.5 2.6-48 2.6-48 2.6s-38 0-48-2.6c-5-1.4-9-5.5-10-11-3-9.5-3-29-3-29s0-20 3-29c1-5.2 5-9.3 10-11 9.8-2.6 48-2.6 48-2.6s38 0 48 2.6c5.2 1.4 9.3 5.5 11 11 2.5 9.5 2.5 29 2.5 29s0 20-2.5 29" clip-path="url(#clipPath2)" fill="#3A555F"/>
 <path transform="matrix(3.1 0 0 -3.1 156 226)" d="m0 0 32 18-32 18z" clip-path="url(#clipPath4)" fill="#CFB06A"/>
</svg>
