<svg width="190" height="260" xmlns="http://www.w3.org/2000/svg" xmlns:xlink="http://www.w3.org/1999/xlink" xml:space="preserve" overflow="hidden">

<path d="m-0.62 0v255h191v-255h-191zm16 35h158v159h-158v-159z" fill="#f9f9f9" stroke-width="5.3"/>
<g stroke="#000000">

<path d="m10 239h170" fill="#000000" stroke-width=".8"/>
<path d="m10 20h170" fill="#000000" stroke-width=".8"/>
</g>
<g transform="translate(47 6.8)" fill="#000000">
<path d="m30 8.1 0.1 0.12q0.6-0.05 1.1-0.14 0.5-0.11 1-0.11 0.2 0 0.4 0.07t0.2 0.29q0 0.12-0.1 0.19t-0.2 0.11q-0.1 0.03-0.3 0.05t-0.4 0.05q-0.8 0.15-1.7 0.32-0.1 0.04-0.2 0.07 0 0.04-0.1 0.15-0.4 0.67-1 1.2-0.5 0.5-1 0.9-0.6 0.4-1.3 0.7t-1.4 0.5q-0.6 0.2-1.2 0.2-0.2 0-0.5-0.1-0.3 0-0.6-0.2-0.3-0.1-0.5-0.3t-0.2-0.5q0-0.4 0.3-0.7 0.3-0.4 0.9-0.7 0.5-0.3 1.1-0.55t1.3-0.43q0.6-0.19 1.1-0.32 0.5-0.14 0.8-0.21 0.4-0.07 0.7-0.12 0.5-0.06 0.8-0.18 0.1-0.05 0.1-0.21 0-0.2-0.2-0.34-0.2-0.16-0.5-0.25-0.3-0.1-0.7-0.16-0.4-0.07-0.8-0.08-0.3-0.04-0.6-0.04-0.3-0.02-0.5-0.02-0.9 0-1.9 0.09-0.9 0.09-1.8 0.09-0.4 0-0.8-0.02-0.4-0.03-0.8-0.16-0.4-0.12-0.6-0.39-0.3-0.28-0.3-0.76 0-0.33 0.2-0.69 0.2-0.37 0.5-0.69 0.4-0.34 0.7-0.6 0.3-0.28 0.6-0.48 1.1-0.8 2.5-1.5 1.4-0.73 2.9-1.3 1.5-0.55 3-0.87 1.5-0.34 2.9-0.34 0.3 0 0.8 0.053 0.5 0.054 0.9 0.2 0.4 0.14 0.7 0.42 0.3 0.28 0.3 0.73 0 0.48-0.3 0.95-0.4 0.48-0.9 0.91-0.4 0.42-1 0.79-0.5 0.36-0.8 0.59-0.1 0.05-0.2 0.17-0.2 0.11-0.3 0.22-0.1 0.1-0.2 0.19-0.2 0.09-0.2 0.09-0.2 0-0.3-0.11-0.1-0.1-0.1-0.24 0-0.34 0.3-0.55 0.1-0.13 0.3-0.21 0.1-0.11 0.3-0.2 0.3-0.18 0.6-0.39 0.4-0.23 0.7-0.48 0.3-0.26 0.6-0.55 0.3-0.28 0.5-0.6 0-0.14 0.1-0.28t0.1-0.3q0-0.22-0.2-0.3-0.2-0.11-0.4-0.14-0.2-0.054-0.4-0.054t-0.4 0q-1.4 0-2.9 0.32-1.4 0.32-2.9 0.89-1.4 0.54-2.7 1.3-1.3 0.72-2.5 1.6-0.1 0.08-0.3 0.22-0.1 0.14-0.3 0.32-0.2 0.15-0.4 0.33-0.1 0.18-0.1 0.3 0 0.16 0.2 0.25 0.2 0.07 0.5 0.11 0.3 0.03 0.5 0.03 0.3 0 0.4 0 0.4 0 1 0 0.7-0.02 1.4 0.02 0.7 0.02 1.5 0.11 0.8 0.07 1.4 0.26 0.6 0.18 1.1 0.5t0.6 0.81q0 0.04 0 0.13zm-6.1 3.9q0.6 0 1.3-0.2t1.4-0.6q0.7-0.3 1.2-0.8 0.6-0.46 1-0.97h-0.3q-0.2 0-0.7 0.11-0.5 0.1-1.1 0.28-0.6 0.16-1.3 0.38-0.7 0.2-1.2 0.5-0.5 0.2-0.9 0.5-0.3 0.2-0.3 0.5 0 0.1 0.1 0.2 0.1 0 0.2 0 0.2 0.1 0.4 0.1 0.1 0 0.2 0zm14-3.4q0.1-0.12 0.2-0.25 0.1-0.14 0.2-0.14 0.2 0 0.3 0.09t0.1 0.23q0 0.02-0.1 0.03 0 0.02 0 0.04-0.1 0.42-0.5 0.88-0.4 0.45-0.9 0.84-0.4 0.2-0.8 0.4t-0.8 0.2-0.8-0.2q-0.3-0.2-0.3-0.79-0.1-0.41 0-0.89-0.2 0.14-0.5 0.44-0.3 0.29-0.6 0.54-0.2 0.3-0.5 0.6-0.3 0.2-0.6 0.2-0.4 0-0.6-0.3-0.3-0.3-0.3-0.68 0-0.43 0.3-0.98 0.3-0.54 0.7-1t0.9-0.82q0.6-0.33 1-0.33t0.5 0.19q0.1 0.2 0.2 0.5 0.1-0.07 0.2-0.2 0.1-0.14 0.1-0.26 0.1-0.13 0.2-0.22 0.1-0.08 0.2-0.08 0.2 0 0.3 0.17 0.2 0.16 0.2 0.3 0 0.16-0.2 0.48-0.1 0.3-0.2 0.69-0.3 0.64-0.3 1t0.2 0.57q0.2 0.16 0.4 0.16 0.3 0 0.6-0.18 0.4-0.18 0.7-0.48 0.3-0.32 0.5-0.76zm-3.1-0.82q-0.2-0.05-0.3-0.05-0.2 0-0.4 0.13-0.2 0.12-0.4 0.31-0.2 0.2-0.5 0.43-0.2 0.23-0.3 0.46-0.2 0.3-0.3 0.46 0 0.16 0 0.19 0.1 0.02 0.3-0.07 0.1-0.08 0.3-0.26 0.3-0.18 0.5-0.41 0.3-0.25 0.5-0.48t0.4-0.42q0.1-0.2 0.2-0.29zm5.4 5q0.4-0.5 0.7-1.3 0.4-0.8 0.7-1.5 0.4-0.71 0.6-1.3 0.2-0.58 0.3-0.81 0-0.02 0-0.02-0.1 0-0.4 0.19-0.2 0.2-0.5 0.5-0.4 0.28-0.8 0.62t-0.8 0.64q-0.4 0.26-0.8 0.46t-0.6 0.2q-0.5 0-0.7-0.3-0.2-0.35-0.2-0.75 0-0.27 0.2-0.71 0.1-0.44 0.3-0.87 0.2-0.44 0.5-0.76 0.2-0.32 0.5-0.32 0.2 0 0.3 0.12 0.2 0.13 0.2 0.31 0 0.14-0.3 0.51-0.2 0.37-0.4 0.81-0.4 0.87-0.2 0.96 0.2 0.07 0.9-0.41 0.4-0.28 0.9-0.69t1-0.78q0.5-0.39 0.8-0.69 0.4-0.32 0.6-0.42 0.1-0.11 0.3-0.11t0.4 0.16q0.1 0.14 0.1 0.35 0 0.11-0.2 0.68-0.2 0.55-0.6 1.3-0.3 0.77-0.7 1.7-0.4 0.9-0.8 1.7t-0.7 1.5q-0.3 0.6-0.4 0.8-0.2 0.3-0.5 0.5t-0.6 0.2q-0.5 0-0.9-0.4-0.4-0.3-0.7-0.8-0.2-0.5-0.3-1-0.1-0.6-0.1-1 0-0.3 0.1-0.6t0.5-0.3q0.3 0 0.5 0.4 0.2 0.5 0.3 1 0.2 0.6 0.3 0.9 0.2 0.3 0.3 0.3 0.2 0.1 0.4-0.2 0.2-0.2 0.5-0.8zm6.7-3.5q-0.2 0.18-0.5 0.52-0.3 0.36-0.6 0.66-0.4 0.3-0.7 0.5-0.3 0.3-0.6 0.3-0.4 0-0.6-0.4-0.2-0.3-0.2-0.7 0-0.27 0.2-0.82 0.1-0.57 0.4-1.1t0.6-0.96q0.3-0.4 0.7-0.4 0.2 0 0.4 0.16t0.2 0.42q0 0.14-0.2 0.43-0.1 0.26-0.3 0.6-0.2 0.32-0.4 0.65-0.1 0.34-0.2 0.62 0.2-0.07 0.5-0.33 0.3-0.27 0.7-0.61 0.3-0.35 0.6-0.72 0.4-0.39 0.7-0.71 0.2-0.32 0.5-0.51 0.2-0.22 0.3-0.22t0.2 0.09 0.1 0.23q0 0.09-0.1 0.41-0.2 0.32-0.4 0.74-0.2 0.41-0.3 0.85-0.2 0.43-0.2 0.73 0 0.12 0 0.27 0.1 0.1 0.2 0.1t0.2-0.1q0.2-0.06 0.3-0.13 0.4-0.35 0.7-0.65t0.6-0.73q0.1-0.09 0.2-0.19 0-0.11 0.1-0.18 0.1-0.05 0.2-0.05t0.2 0.07 0.1 0.21q0 0.25-0.3 0.67-0.3 0.43-0.8 0.85-0.4 0.43-0.9 0.73-0.4 0.3-0.7 0.3t-0.5-0.2q-0.2-0.1-0.3-0.3-0.1-0.3-0.1-0.55 0-0.28 0-0.53zm6.7-1.4q-0.7 0.61-1.5 1.2-0.7 0.64-1.5 1.1-0.1 0.1-0.3 0.2t-0.4 0.1q-0.3 0-0.5-0.2t-0.2-0.49q0-0.41 0.3-1 0.3-0.62 0.7-1.2t1-0.97q0.5-0.41 0.9-0.41 0.5 0 0.7 0.27 0.3 0.26 0.5 0.62 0 0 0 0.01 0 0 0.1 0 0 0 0.1-0.05 0.1-0.07 0.1-0.12 0.1-0.07 0.2-0.13 0.1-0.07 0.3-0.07 0.1 0 0.3 0.09t0.2 0.32q0 0.03 0 0.12t0 0.2q-0.1 0.1-0.1 0.21 0 0.09-0.1 0.12-0.4 1.4-1 2.8-0.6 1.3-1.3 2.6-0.1 0.2-0.3 0.5-0.1 0.3-0.4 0.5-0.2 0.3-0.4 0.5-0.3 0.1-0.6 0.1-0.4 0-0.7-0.2-0.4-0.3-0.6-0.6-0.2-0.4-0.4-0.8-0.1-0.5-0.1-0.8t0.1-0.5q0.2-0.2 0.5-0.2 0.2 0 0.4 0.3t0.3 0.7 0.2 0.7 0.3 0.3 0.5-0.4 0.6-0.9q0.3-0.6 0.7-1.2 0.3-0.7 0.6-1.3 0.3-0.59 0.5-1 0.2-0.46 0.2-0.62 0.1-0.07 0.1-0.14t0-0.14q0-0.08 0-0.15zm-1.1 0q0-0.17-0.1-0.39-0.1-0.21-0.3-0.21t-0.5 0.29q-0.3 0.28-0.6 0.65t-0.5 0.73q-0.3 0.35-0.3 0.49 0 0.04 0 0.07 0.1 0.02 0.1 0.04 0.6-0.39 1.1-0.82 0.5-0.42 1.1-0.85zm4.1-0.24q0.2-0.11 0.4-0.36 0.3-0.25 0.5-0.49 0.3-0.27 0.5-0.46 0.3-0.2 0.4-0.2 0.3 0 0.4 0.16t0.1 0.37q0 0.16-0.1 0.44 0 0.29-0.1 0.57 0 0.28 0 0.5 0.1 0.21 0.3 0.21t0.4-0.12q0.2-0.13 0.3-0.13t0.2 0.11q0.1 0.1 0.1 0.21 0 0.07 0 0.16 0 0.07-0.1 0.11-0.2 0.21-0.5 0.32-0.2 0.1-0.5 0.1-0.5 0-0.7-0.49-0.3-0.5-0.2-1.2-0.2 0-0.5 0.39-0.4 0.37-0.7 0.92t-0.6 1.2q-0.3 0.64-0.5 1 0 0.1-0.2 0.2-0.1 0-0.2 0-0.2 0-0.3-0.1-0.1 0-0.2-0.2-0.1-0.1-0.1-0.3t0-0.3q0-0.32 0.2-1.1 0.2-0.74 0.5-1.6 0.3-0.82 0.6-1.5t0.4-0.97q0.2-0.2 0.5-0.2 0.2 0 0.4 0.16 0.1 0.16 0.1 0.41 0 0.05-0.1 0.37t-0.2 0.69q-0.2 0.36-0.3 0.68t-0.2 0.39zm8.8 0.9q0.1-0.12 0.1-0.25 0.2-0.14 0.3-0.14t0.2 0.09 0.1 0.23q0 0.02 0 0.03 0 0.02 0 0.04-0.1 0.42-0.6 0.88-0.4 0.45-0.9 0.84-0.3 0.2-0.8 0.4-0.4 0.2-0.8 0.2t-0.7-0.2-0.4-0.79q0-0.41 0.1-0.89-0.3 0.14-0.5 0.44-0.3 0.29-0.6 0.54-0.3 0.3-0.6 0.6-0.2 0.2-0.6 0.2t-0.6-0.3-0.2-0.68q0-0.43 0.3-0.98 0.2-0.54 0.7-1 0.4-0.48 0.9-0.82 0.5-0.33 1-0.33 0.3 0 0.5 0.19 0.1 0.2 0.2 0.5 0.1-0.07 0.1-0.2 0.1-0.14 0.2-0.26 0.1-0.13 0.2-0.22 0.1-0.08 0.2-0.08 0.2 0 0.3 0.17 0.1 0.16 0.1 0.3 0 0.16-0.1 0.48-0.1 0.3-0.3 0.69-0.2 0.64-0.2 1t0.2 0.57q0.1 0.16 0.4 0.16t0.6-0.18 0.6-0.48q0.4-0.32 0.6-0.76zm-3.2-0.82q-0.1-0.05-0.3-0.05-0.1 0-0.3 0.13-0.2 0.12-0.5 0.31-0.2 0.2-0.4 0.43t-0.4 0.46q-0.2 0.3-0.2 0.46-0.1 0.16 0 0.19 0.1 0.02 0.2-0.07 0.2-0.08 0.4-0.26t0.5-0.41q0.2-0.25 0.4-0.48 0.3-0.23 0.4-0.42 0.2-0.2 0.2-0.29zm7.9 1.2q-0.2 0.05-0.4 0.24-0.3 0.2-0.5 0.41t-0.4 0.36q-0.2 0.2-0.4 0.2-0.3 0-0.5-0.2-0.1-0.18-0.2-0.45 0-0.1 0.1-0.28 0-0.18 0.1-0.37 0.1-0.21 0.1-0.39t0-0.27q0-0.14-0.1 0-0.2 0.13-0.4 0.36-0.2 0.21-0.4 0.42-0.1 0.21-0.2 0.25-0.1 0.16-0.3 0.41-0.1 0.25-0.3 0.52-0.1 0.2-0.3 0.5-0.1 0.2-0.3 0.3-0.1 0.1-0.4 0.1-0.2 0-0.4-0.1-0.1-0.1-0.2-0.4 0-0.2 0.1-0.5 0.1-0.41 0.3-0.87 0.2-0.47 0.4-0.97 0.3-0.51 0.5-0.96 0.2-0.44 0.4-0.77 0.2-0.34 0.3-0.47 0.2-0.1 0.4-0.1t0.3 0.14q0.2 0.12 0.2 0.34 0 0.1-0.1 0.24 0 0.15-0.1 0.31-0.1 0.14-0.1 0.28-0.1 0.14-0.1 0.21 0 0.02 0 0.04 0 0.01 0 0.05 0.1-0.07 0.2-0.16 0.2-0.11 0.3-0.19 0.2-0.09 0.3-0.16 0.2-0.07 0.3-0.07 0.3 0 0.4 0.17 0.2 0.18 0.2 0.46 0 0.16 0 0.37-0.1 0.22-0.1 0.45-0.1 0.23-0.1 0.46-0.1 0.21-0.1 0.35 0 0.06 0.3-0.1 0.2-0.18 0.5-0.39 0.3-0.23 0.6-0.43 0.3-0.21 0.5-0.21 0.4 0 0.5 0.19 0.1 0.18 0.1 0.43 0.1 0.25 0 0.51 0 0.25 0.1 0.41 0.1 0.18 0.4 0.05 0.3-0.12 0.7-0.37 0.3-0.26 0.6-0.55 0.3-0.28 0.5-0.42 0.1-0.18 0.3-0.14 0.1 0.01 0.2 0.14 0.1 0.12 0.1 0.3 0 0.16-0.1 0.26-0.1 0.13-0.4 0.3-0.2 0.18-0.4 0.38-0.3 0.19-0.6 0.39t-0.6 0.3q-0.2 0.1-0.4 0.2t-0.4 0.2q-0.2 0-0.4 0-0.1-0.1-0.3-0.2-0.3-0.3-0.3-1.2 0-0.09 0-0.16 0-0.09 0-0.16z" color="#000000" style="-inkscape-stroke:none"/>
</g>
<g stroke="#000000">
<path d="m24 200c2.9-8 14 0 0 9-14-9-2.9-17 0-9z" fill="freeze" fill-opacity="1" fill-rule="evenodd" stroke-width=".19">
</path>
<path d="m17 5.7v2.4h-2.4v9.2h13v-9.2h-2.7v-2.4z" fill="none" stroke-width=".48"/>
<circle cx="21" cy="12" r="3" fill="none" stroke-width=".46"/>
</g>
<circle cx="25" cy="28" r="5.5" fill="#808080"/>
<path d="m170 26q0-0.5 0-0.8 1-0.3 1-0.3 1 0 1 0.3t0 0.8q0 0.4 0 0.7 0 0.4-1 0.4 0 0-1-0.4 0-0.3 0-0.7zm-6 0q0-0.5 0-0.8 1-0.3 1-0.3 1 0 1 0.3t0 0.8q0 0.4 0 0.7 0 0.4-1 0.4 0 0-1-0.4 0-0.3 0-0.7zm12 0q0-0.5 0-0.8 1-0.3 1-0.3t1 0.3q0 0.3 0 0.8 0 0.4 0 0.7-1 0.4-1 0.4t-1-0.4q0-0.3 0-0.7z" direction="rtl" fill="#808080" stroke-opacity=".38" stroke-width=".53" aria-label="…"/>
<g>
<path d="m41 197c-3.5 0-6.4 3-6.7 6 0.3 3 3.1 6 6.5 6h8.2v-2h-2.6c0.9-1 1.3-3 1.3-4-0.3-3-3.2-6-6.7-6z" fill="none" stroke="#000000" stroke-width=".27"/>
<text x="20" y="220" fill="#808080" font-size="5" style="font-family: 'Helvetica Neue', Arial, 'Hiragino Kaku Gothic ProN', 'Hiragino Sans', Meiryo, sans-serif;">


#君の事が大好き


</text>
<text x="32" y="32" fill="#808080" font-size="10" style="font-family: 'Helvetica Neue', Arial, 'Hiragino Kaku Gothic ProN', 'Hiragino Sans', Meiryo, sans-serif;">


Sayu


</text>
</g>


</svg>

